<svg viewBox="0 0 133 113" fill="none" xmlns="http://www.w3.org/2000/svg">
<path d="M64 96.1931C64 91.8127 60.7688 89 56.5 89C52.1603 89 49 91.8357 49 96.2161C49 98.0144 49.2595 99.4207 51.1698 103.548L55.3915 113L63.2217 113L60.1321 102.51C62.4905 101.403 64 99.2132 64 96.1931Z" fill="#F65E08"/>
<path d="M49 16.1066C49 20.3045 52.2312 23 56.5 23C60.8396 23 64 20.2824 64 16.0845C64 14.3612 63.7405 13.0135 61.8302 9.05861L57.6085 -2.33555e-07L49.7784 -5.19683e-07L52.868 10.0529C50.5095 11.1134 49 13.2123 49 16.1066Z" fill="#F65E08"/>
<path d="M16.1066 64C20.3045 64 23 60.7688 23 56.5C23 52.1604 20.2824 49 16.0845 49C14.3612 49 13.0135 49.2595 9.05861 51.1698L1.49387e-06 55.3915L3.324e-06 63.2217L10.0529 60.1321C11.1134 62.4905 13.2123 64 16.1066 64Z" fill="#F65E08"/>
<path d="M96.3132 49.1872C91.951 49.1872 89.15 52.3326 89.15 56.4882C89.15 60.7126 91.974 63.7891 96.3362 63.7891C98.127 63.7891 99.5274 63.5365 103.637 61.6769L113.05 57.5673L113.05 49.9449L102.604 52.9525C101.502 50.6566 99.3208 49.1872 96.3132 49.1872Z" fill="#F65E08"/>
<path d="M92.5932 79.4546C89.5087 76.37 85.3039 76.6136 82.3655 79.552C79.3784 82.5392 79.1998 86.7114 82.2844 89.796C83.5506 91.0622 84.7195 91.8739 88.9405 93.4649L98.5025 97.2151L103.892 91.8253L94.379 86.5653C95.2232 84.1626 94.7199 81.5813 92.5932 79.4546Z" fill="#F65E08"/>
<path d="M25.9976 33.5117C29.0821 36.5962 33.2869 36.3527 36.2253 33.4143C39.2125 30.4271 39.391 26.2549 36.3065 23.1703C35.0402 21.904 33.8713 21.0924 29.6503 19.5014L20.0883 15.7512L14.6984 21.141L24.2118 26.401C23.3676 28.8037 23.8709 31.385 25.9976 33.5117Z" fill="#F65E08"/>
<path d="M36.2611 89.7903C39.3457 86.7057 39.1021 82.501 36.1637 79.5625C33.1765 76.5754 29.0043 76.3968 25.9197 79.4814C24.6535 80.7477 23.8418 81.9166 22.2508 86.1375L18.5006 95.6996L23.8904 101.089L29.1504 91.576C31.5531 92.4202 34.1344 91.917 36.2611 89.7903Z" fill="#F65E08"/>
<path d="M82.2047 23.1967C79.1202 26.2813 79.3637 30.486 82.3021 33.4245C85.2893 36.4116 89.4615 36.5902 92.5461 33.5056C93.8124 32.2393 94.624 31.0704 96.215 26.8495L99.9652 17.2874L94.5754 11.8976L89.3154 21.411C86.9127 20.5668 84.3314 21.07 82.2047 23.1967Z" fill="#F65E08"/>
<path d="M119 5V15H120.645V10.8708H122.847C124.453 10.8708 124.824 11.4326 124.917 13.0056C124.97 13.9326 124.983 14.6208 125.222 15H127C126.615 14.5506 126.589 13.7079 126.496 12.514C126.416 11.4888 126.297 10.5197 125.09 10.2388C126.085 9.87359 126.655 8.98876 126.655 7.7809C126.655 5.71629 125.169 5 123.471 5H119ZM120.645 6.43258H123.046C124.041 6.43258 125.01 6.64326 125.01 7.96348C125.01 9.39607 123.922 9.56461 122.834 9.56461H120.645V6.43258Z" fill="currentColor"/>
<path fill-rule="evenodd" clip-rule="evenodd" d="M114.429 10C114.429 14.7339 118.266 18.5714 123 18.5714C127.734 18.5714 131.571 14.7339 131.571 10C131.571 5.26613 127.734 1.42857 123 1.42857C118.266 1.42857 114.429 5.26613 114.429 10ZM123 0C117.477 0 113 4.47715 113 10C113 15.5228 117.477 20 123 20C128.523 20 133 15.5228 133 10C133 4.47715 128.523 0 123 0Z" fill="currentColor"/>
</svg>
